<svg xmlns="http://www.w3.org/2000/svg" xmlns:xlink="http://www.w3.org/1999/xlink" x="0px" y="0px"
	 viewBox="0 0 425.273 425.273" style="enable-background:new 0 0 425.273 425.273;" xml:space="preserve">
<path style="fill:#FF449E;" d="M258.612,0C166.661,0,91.951,74.71,91.951,166.661c0,40.229,14.629,77.322,38.139,106.057
	l-50.678,50.678l-52.767-52.767c-6.269-6.269-16.196-6.269-21.943,0c-6.269,6.269-6.269,16.196,0,21.943l52.767,52.767
	l-44.408,44.931c-6.269,6.269-6.269,16.196,0,21.943c3.135,3.135,7.314,4.702,10.971,4.702s7.837-1.567,10.971-4.702l44.408-44.408
	l52.767,52.767c3.135,3.135,7.314,4.702,10.971,4.702c3.657,0,7.837-1.567,10.971-4.702c6.269-6.269,6.269-16.196,0-21.943
	l-52.245-53.29l50.678-50.678c28.735,24.033,65.829,38.139,106.057,38.139c91.951,0,166.661-74.71,166.661-166.661
	S350.563,0,258.612,0z M258.612,301.975c-36.571,0-70.008-14.629-94.563-38.661c-0.522-0.522-0.522-1.045-1.045-1.045
	c-0.522-0.522-1.045-0.522-1.045-1.045c-24.033-24.555-38.661-57.992-38.661-94.563c0-74.71,60.604-135.314,135.314-135.314
	s135.314,60.604,135.314,135.314S333.322,301.975,258.612,301.975z"/>
<g>
</g>
<g>
</g>
<g>
</g>
<g>
</g>
<g>
</g>
<g>
</g>
<g>
</g>
<g>
</g>
<g>
</g>
<g>
</g>
<g>
</g>
<g>
</g>
<g>
</g>
<g>
</g>
<g>
</g>
</svg>
