<svg width="517" height="126" viewBox="0 0 517 126" fill="none" xmlns="http://www.w3.org/2000/svg">
<path d="M49.104 58L48.96 35.032L38.016 53.464H30.528L19.584 35.824V58H4.104V7.6H18.072L34.488 34.456L50.472 7.6H64.44L64.584 58H49.104ZM99.2233 59.152C93.7993 59.152 88.9273 58.024 84.6073 55.768C80.2873 53.512 76.9033 50.392 74.4553 46.408C72.0073 42.376 70.7833 37.84 70.7833 32.8C70.7833 27.76 72.0073 23.248 74.4553 19.264C76.9033 15.232 80.2873 12.088 84.6073 9.832C88.9273 7.576 93.7993 6.448 99.2233 6.448C104.647 6.448 109.519 7.576 113.839 9.832C118.159 12.088 121.543 15.232 123.991 19.264C126.439 23.248 127.663 27.76 127.663 32.8C127.663 37.84 126.439 42.376 123.991 46.408C121.543 50.392 118.159 53.512 113.839 55.768C109.519 58.024 104.647 59.152 99.2233 59.152ZM99.2233 45.4C101.335 45.4 103.231 44.896 104.911 43.888C106.639 42.832 108.007 41.368 109.015 39.496C110.023 37.576 110.527 35.344 110.527 32.8C110.527 30.256 110.023 28.048 109.015 26.176C108.007 24.256 106.639 22.792 104.911 21.784C103.231 20.728 101.335 20.2 99.2233 20.2C97.1113 20.2 95.1913 20.728 93.4633 21.784C91.7833 22.792 90.4393 24.256 89.4313 26.176C88.4233 28.048 87.9193 30.256 87.9193 32.8C87.9193 35.344 88.4233 37.576 89.4313 39.496C90.4393 41.368 91.7833 42.832 93.4633 43.888C95.1913 44.896 97.1113 45.4 99.2233 45.4ZM152.623 59.152C148.447 59.152 144.367 58.696 140.383 57.784C136.447 56.824 133.207 55.552 130.663 53.968L136.135 41.584C138.535 42.976 141.223 44.104 144.199 44.968C147.175 45.784 150.031 46.192 152.767 46.192C155.119 46.192 156.799 45.976 157.807 45.544C158.815 45.064 159.319 44.368 159.319 43.456C159.319 42.4 158.647 41.608 157.303 41.08C156.007 40.552 153.847 39.976 150.823 39.352C146.935 38.536 143.695 37.672 141.103 36.76C138.511 35.8 136.255 34.264 134.335 32.152C132.415 29.992 131.455 27.088 131.455 23.44C131.455 20.272 132.343 17.392 134.119 14.8C135.895 12.208 138.535 10.168 142.039 8.68C145.591 7.192 149.887 6.448 154.927 6.448C158.383 6.448 161.767 6.832 165.079 7.6C168.439 8.32 171.391 9.4 173.935 10.84L168.823 23.152C163.879 20.656 159.199 19.408 154.783 19.408C150.415 19.408 148.231 20.464 148.231 22.576C148.231 23.584 148.879 24.352 150.175 24.88C151.471 25.36 153.607 25.888 156.583 26.464C160.423 27.184 163.663 28.024 166.303 28.984C168.943 29.896 171.223 31.408 173.143 33.52C175.111 35.632 176.095 38.512 176.095 42.16C176.095 45.328 175.207 48.208 173.431 50.8C171.655 53.344 168.991 55.384 165.439 56.92C161.935 58.408 157.663 59.152 152.623 59.152ZM191.392 20.776H176.632V7.6H223.144V20.776H208.384V58H191.392V20.776ZM86.112 65.6L69.984 116H51.768L43.632 89.072L35.064 116H16.848L0.72 65.6H18.216L27 94.256L36.288 65.6H51.912L60.696 94.616L69.984 65.6H86.112ZM122.401 107.216H103.249L99.8651 116H82.5851L104.617 65.6H121.321L143.353 116H125.785L122.401 107.216ZM117.721 94.976L112.825 82.304L107.929 94.976H117.721ZM195.745 65.6V116H181.777L162.625 93.104V116H146.065V65.6H160.033L179.185 88.496V65.6H195.745ZM214.876 78.776H200.116V65.6H246.628V78.776H231.868V116H214.876V78.776ZM292.946 103.184V116H251.042V65.6H292.01V78.416H267.746V84.32H289.058V96.56H267.746V103.184H292.946ZM299.487 65.6H324.327C329.943 65.6 334.887 66.632 339.159 68.696C343.479 70.712 346.815 73.616 349.167 77.408C351.567 81.2 352.767 85.664 352.767 90.8C352.767 95.936 351.567 100.4 349.167 104.192C346.815 107.984 343.479 110.912 339.159 112.976C334.887 114.992 329.943 116 324.327 116H299.487V65.6ZM323.607 102.752C327.255 102.752 330.159 101.72 332.319 99.656C334.527 97.544 335.631 94.592 335.631 90.8C335.631 87.008 334.527 84.08 332.319 82.016C330.159 79.904 327.255 78.848 323.607 78.848H316.479V102.752H323.607Z" fill="black"/>
<path d="M274.581 18.2366C273.393 16.9397 271.546 15.1893 270.761 19.1416C270.494 20.4855 269.869 21.5214 269.334 22.3555C268.758 19.4373 267.023 16.4169 265.389 14.3804C264.777 13.6184 262.607 10.5895 262.19 5.52232C262.128 4.76607 261.229 4.41093 260.667 4.92104C255.298 9.79543 252.351 16.4994 252.241 24.0467C252.241 24.0467 250.005 22.162 248.79 18.6558C248.463 17.7116 247.198 17.5315 246.648 18.3664C246.543 18.5267 246.445 18.6872 246.357 18.8431C242.214 26.1685 240.221 35.0641 242.064 43.3403C245.144 57.2003 265.521 61.0752 276.309 52.3639C286.863 43.841 283.508 27.978 274.581 18.2366Z" fill="#ED694A"/>
<path d="M244.931 44.2104C243.11 35.8458 245.038 26.8635 249.083 19.4234C248.981 19.1766 248.883 18.9213 248.791 18.6559C248.463 17.7118 247.198 17.5316 246.648 18.3665C246.543 18.5268 246.445 18.6873 246.357 18.8432C242.214 26.1686 240.222 35.0643 242.064 43.3404C243.469 49.6623 248.473 53.9054 254.524 55.8257C249.803 53.5392 246.107 49.6194 244.931 44.2104Z" fill="#D8553A"/>
<path d="M255.123 23.9077C255.346 17.058 257.824 10.9161 262.258 6.19776C262.228 5.93792 262.205 5.70558 262.19 5.52923C262.127 4.76652 261.261 4.384 260.702 4.88965C255.516 9.57857 252.355 16.2147 252.241 24.0464L253.212 24.8002C253.69 25.1715 254.338 25.1554 254.794 24.8153C255.067 24.5844 255.106 24.2359 255.123 23.9077Z" fill="#D8553A"/>
<path d="M271.324 28.3684C270.447 27.4105 269.082 26.1176 268.502 29.0369C268.305 30.0294 267.844 30.7947 267.449 31.4108C267.023 29.2553 265.742 27.0243 264.534 25.5202C264.083 24.9574 262.48 22.7203 262.172 18.9773C262.126 18.4187 261.462 18.1565 261.047 18.5332C257.081 22.1335 254.904 27.0853 254.823 32.6598C254.823 32.6598 253.172 31.2677 252.275 28.678C252.033 27.9806 251.098 27.8476 250.693 28.4642C250.615 28.5826 250.543 28.7013 250.477 28.8164C247.417 34.227 245.945 40.7975 247.306 46.9105C249.581 57.1478 264.632 60.01 272.6 53.5755C280.396 47.2805 277.918 35.5638 271.324 28.3684Z" fill="#F4A32C"/>
<path d="M250.144 47.7136C248.939 41.7379 250.187 35.326 252.833 29.9867C252.631 29.5919 252.44 29.1555 252.275 28.6781C252.033 27.9808 251.098 27.8476 250.692 28.4643C250.615 28.5826 250.542 28.7013 250.477 28.8165C247.417 34.2272 245.945 40.7976 247.306 46.9106C248.364 51.6718 252.186 54.8367 256.773 56.2139C253.514 54.5795 250.948 51.7079 250.144 47.7136Z" fill="#E89528"/>
<path d="M268.35 37.6182C267.757 36.9698 266.833 36.0945 266.44 38.0708C266.307 38.7427 265.995 39.2606 265.727 39.6777C265.439 38.2185 264.572 36.7083 263.754 35.6901C263.448 35.3092 262.363 33.7948 262.155 31.261C262.124 30.8829 261.675 30.7053 261.394 30.9605C258.709 33.3977 257.235 36.7497 257.18 40.5232C257.18 40.5232 256.062 39.5808 255.455 37.8278C255.292 37.3558 254.659 37.2657 254.384 37.6831C254.331 37.7632 254.283 37.8435 254.239 37.9215C252.167 41.5842 251.171 46.0319 252.092 50.1701C253.632 57.1002 263.82 59.0376 269.214 54.6819C271.061 53.1903 272.206 51.0886 272.439 48.7637C272.789 45.2424 271.434 40.9831 268.35 37.6182Z" fill="#F4D44E"/>
<path d="M265.591 46.2019C265.26 45.8406 264.746 45.353 264.527 46.4539C264.453 46.8283 264.279 47.1169 264.13 47.3492C263.969 46.5363 263.486 45.6949 263.031 45.1276C262.86 44.9153 262.256 44.0716 262.139 42.6601C262.122 42.4493 261.872 42.3506 261.715 42.4925C260.22 43.8504 259.398 45.7179 259.368 47.8202C259.368 47.8202 258.745 47.2952 258.407 46.3185C258.316 46.0555 257.963 46.0052 257.81 46.2379C257.781 46.2826 257.754 46.3273 257.729 46.3707C256.575 48.4114 256.02 50.8893 256.533 53.1948C257.702 58.453 267.281 58.2935 267.869 52.4112C268.064 50.4495 267.309 48.0764 265.591 46.2019Z" fill="#EAE9E8"/>
<path d="M258.757 54.2384C258.244 52.176 258.799 49.9594 259.953 48.1341C259.978 48.0952 260.005 48.0552 260.034 48.0153C260.187 47.8072 260.54 47.8521 260.631 48.0873C260.969 48.961 261.592 49.4307 261.592 49.4307C261.617 47.8855 262.177 46.4827 263.205 45.3576C262.975 45.0392 262.272 44.2715 262.139 42.6603C262.122 42.4495 261.872 42.3508 261.715 42.4927C260.22 43.8506 259.398 45.7181 259.368 47.8204C259.368 47.8204 258.745 47.2954 258.407 46.3189C258.316 46.0558 257.963 46.0056 257.81 46.2382C257.781 46.2829 257.754 46.3276 257.729 46.3711C256.575 48.4116 256.02 50.8896 256.533 53.1951C257.008 55.3321 258.959 56.6164 261.116 56.9263C259.953 56.3549 259.058 55.45 258.757 54.2384Z" fill="#F7E7A1"/>
<path d="M253.551 7.57532C255.958 5.61717 255.953 1.9537 253.551 0C251.143 1.95804 251.149 5.62162 253.551 7.57532Z" fill="#D8553A"/>
<path d="M282.407 23.2913C284.814 21.3331 284.809 17.6697 282.407 15.716C281.306 16.6108 280.005 21.3376 282.407 23.2913Z" fill="#D8553A"/>
<path d="M239.767 24.7823C241.502 23.371 241.498 20.7309 239.767 19.3227C238.974 19.9676 238.036 23.3742 239.767 24.7823Z" fill="#D8553A"/>
<path d="M269.817 13.035C271.552 11.6237 271.548 8.98351 269.817 7.57532C268.082 8.98651 268.086 11.6269 269.817 13.035Z" fill="#D8553A"/>
<path d="M257.037 31.7646C257.435 27.0608 259.232 22.8783 262.248 19.6897C262.217 19.4586 262.192 19.2214 262.172 18.9775C262.126 18.4188 261.462 18.1566 261.047 18.5334C257.904 21.3863 255.887 25.0886 255.144 29.2762L255.143 29.2759C255.088 29.5865 255.02 30.0389 254.977 30.3944C254.977 30.3947 254.977 30.3949 254.977 30.3953C254.887 31.1372 254.834 31.8924 254.823 32.66C254.907 32.6764 256.807 33.6531 257.037 31.7646Z" fill="#E89528"/>
<path d="M254.868 51.1532C254.049 47.2873 254.747 43.1648 256.367 39.5928C256.053 39.1528 255.709 38.5616 255.455 37.8277C255.292 37.3557 254.659 37.2656 254.384 37.683C254.332 37.7631 254.283 37.8434 254.239 37.9214C252.167 41.5841 251.171 46.0318 252.092 50.17C252.813 53.4155 255.431 55.5659 258.565 56.4878C256.741 55.2768 255.361 53.4843 254.868 51.1532Z" fill="#E8C842"/>
<path d="M260.136 38.8339C260.408 36.894 261.201 34.7566 262.45 32.9697C262.314 32.4652 262.207 31.8951 262.155 31.261C262.124 30.8829 261.675 30.7053 261.394 30.9605C259.721 32.4791 258.52 34.3536 257.838 36.4632L257.836 36.4627C257.729 36.7942 257.577 37.3432 257.485 37.7766C257.486 37.7764 257.487 37.7764 257.488 37.7761C257.299 38.6605 257.195 39.5783 257.181 40.5231C258.683 40.7106 259.925 40.3386 260.136 38.8339Z" fill="#E8C842"/>
</svg>
